<svg xmlns="http://www.w3.org/2000/svg" width="200" height="56" fill="none"><path fill="#274C5B" d="M70 27v7l-3 4-3 3-5 1-5-1-3-3-3-4-1-5v-2l1-5 3-4 3-3 5-1 5 1 3 3 3 4v5Zm-5 2v-2l-1-3-1-3a5 5 0 0 0-4-2h-3l-1 2-2 3v8l2 3 1 2h5l2-2 1-3 1-3Zm14-3v16h-5V21h5v5Zm6-5v5a13 13 0 0 0-2 0h-2l-1 1-1 2v1h-1v-4l1-2 2-2 3-1a6 6 0 0 1 1 0Zm15 0h5v20l-1 4-3 3a12 12 0 0 1-11 0l-2-2 2-3 3 2h5l1-2 1-2V21ZM87 32v-5l2-3a7 7 0 0 1 6-3l3 1 3 2 1 3 1 4v1l-1 4-2 3-2 2-3 1a7 7 0 0 1-6-3l-2-3v-4Zm5-1v3l1 2 1 1 2 1 3-1 1-2 1-2v-3l-1-2-1-1-1-1-2-1-2 1-1 1-1 2v2Zm28 6V26l-1-1h-3l-1 1-1 1h-5l1-2 1-2 3-1a12 12 0 0 1 8 0l2 2 2 4v14h-5l-1-3v-2Zm1-8v3h-3l-2 1h-1l-1 1v3l1 1h1l3-1 1-1v-1l2 2a9 9 0 0 1-2 3l-2 1-3 1-3-1-3-2-1-3 1-3 2-2 3-1 4-1h3Zm14-3v16h-5V21h5v5Zm-1 5h-1v-4l2-3a7 7 0 0 1 6-3h2l2 2 1 2 1 4v13h-5V29l-1-2-1-1-2-1-2 1-1 1-1 2v2Zm23-10v21h-6V21h6Zm-6-5 1-2h4l1 2-1 2-2 1-2-1-1-2Zm18 22 2-1 1-1 1-1h5l-1 3-3 3-5 1-4-1-3-2-1-3-1-4v-1l1-4 1-3 3-2 4-1 5 1 3 3 1 4h-5l-1-2-1-1-2-1-2 1-1 1v9l1 1 2 1Zm17-25v29h-5V13h5Zm13 8-9 10-5 5-2-4 4-4 5-7h7Zm-6 21-6-10 4-3 8 13h-6Z"/><path stroke="#7EB693" stroke-miterlimit="10" stroke-width="2" d="M2 42h35M6 49h27M19 2v14M19 15v26M30 5 19 16M34 9 19 24M37 16 19 33M38 23 19 42M38 32 27 42M1 32l10 10M9 5l10 11M4 9l15 15M2 15l17 18M1 22l18 19M19 55C9 55 1 46 1 36V20C1 10 9 1 19 1s19 9 19 19v16c0 10-9 19-19 19Z"/></svg>