<svg xmlns="http://www.w3.org/2000/svg" width="124" height="27" fill="none"><path fill="#FFA858" d="M14 3h2l2 6h7l1 2-5 4-1 1 2 5-1 1-6-3h-1l-5 3c-1 1-2 0-1-1l2-5-1-1-5-4 1-2h7l2-6ZM37 3h2l2 6h7l1 2-5 4v1l1 5c1 1 0 2-1 1l-5-3h-1l-5 3c-1 1-2 0-1-1l1-5v-1l-5-4c-1-1 0-2 1-2h7l1-6ZM61 3h2l2 6h7l1 2-5 4-1 1 2 5c1 1 0 2-1 1l-5-3h-2l-5 3c-1 1-2 0-1-1l2-5-1-1-5-4 1-2h7l2-6ZM85 3h2l1 6h7c1 0 2 1 1 2l-5 4v1l1 5c1 1 0 2-1 1l-5-3h-1l-5 3c-1 1-2 0-1-1l1-5v-1l-5-4 1-2h7l2-6ZM108 3h2l2 6h7l1 2-5 4-1 1 2 5c1 1 0 2-1 1l-5-3h-1l-6 3-1-1 2-5-1-1-5-4 1-2h7l2-6Z"/></svg>